<svg width="40" height="40" viewBox="0 0 40 40" fill="none" xmlns="http://www.w3.org/2000/svg">
<rect width="40" height="40" rx="20" fill="#43C560"/>
<path d="M19.6462 10C14.3209 10 10 14.3209 10 19.6462C10 21.7785 10.6902 23.7426 11.8574 25.3418L10.6285 28.9781L14.4612 27.7828C15.9594 28.7368 17.7383 29.2923 19.6462 29.2923C24.9715 29.2923 29.2924 24.9715 29.2924 19.6462C29.2924 14.3209 24.9715 10 19.6462 10ZM24.0625 24.82C22.3117 25.5214 20.2242 24.8424 17.9403 23.1085C15.6564 21.3745 14.1525 18.9335 14.0515 17.121C13.9505 15.3085 15.4264 14.3938 16.2288 14.3994C17.0312 14.405 17.9122 16.9695 17.9235 17.3623C17.9347 17.7607 16.9415 18.4678 16.9022 18.8044C16.8629 19.1411 18.2545 20.8021 18.8438 21.2511C19.4274 21.6944 20.6338 22.5473 21.2567 22.4688C21.874 22.3846 22.2836 21.1444 22.6764 21.0659C23.0692 20.9873 25.2128 22.0535 25.426 22.3285C25.6393 22.609 25.6168 24.2027 24.0625 24.82Z" fill="white"/>
</svg>
