<svg width="78" height="78" viewBox="0 0 78 78" fill="none" xmlns="http://www.w3.org/2000/svg">
<g filter="url(#filter0_d_1_195)">
<g clip-path="url(#clip0_1_195)">
<path d="M8.56601 4.86007C3.08167 10.556 4.20362 16.6035 4.20362 34.9888C4.20362 50.2542 1.53983 65.5577 15.4818 69.1601C19.836 70.2804 58.4104 70.2804 62.7592 69.1601C68.5639 67.6608 73.2862 62.9544 73.9378 54.7466C74.0278 53.6017 74.0278 16.4086 73.9378 15.2392C73.2562 6.49701 67.8673 1.45671 60.7743 0.437198C59.1425 0.195951 58.8153 0.126438 50.4736 0.111446C20.8884 0.126438 14.4034 -1.19156 8.56601 4.86007Z" fill="url(#paint0_linear_1_195)"/>
<path d="M17.6776 41.6303L20.7278 26.998C19.7935 27.3907 19.0688 27.9798 18.5535 28.7652C18.0383 29.5506 17.7807 30.5289 17.7807 31.7001C17.7807 31.9736 17.7944 32.198 17.8219 32.3733C17.8563 32.5416 17.8906 32.6784 17.9249 32.7836C17.9593 32.8818 17.9902 32.9589 18.0177 33.015C18.052 33.0711 18.0692 33.1202 18.0692 33.1623C17.7051 33.1623 17.3822 33.1272 17.1006 33.0571C16.8189 32.9799 16.5819 32.8607 16.3896 32.6994C16.2041 32.5381 16.0598 32.3242 15.9568 32.0577C15.8606 31.7913 15.8125 31.4617 15.8125 31.0689C15.8125 30.5921 15.9121 30.1222 16.1113 29.6593C16.3174 29.1965 16.5957 28.7582 16.946 28.3444C17.3032 27.9307 17.7189 27.5485 18.1929 27.1978C18.6738 26.8472 19.1855 26.5456 19.7283 26.2932C20.2778 26.0337 20.848 25.8338 21.4388 25.6936C22.0365 25.5463 22.6307 25.4727 23.2215 25.4727C23.3795 25.4727 23.5238 25.4762 23.6543 25.4832C23.7917 25.4902 23.9291 25.5007 24.0665 25.5147L20.7072 41.6303H17.6776Z" fill="white"/>
<path d="M35.7771 37.7697C35.4817 38.6534 35.1623 39.3582 34.8188 39.8841C34.4822 40.4101 34.1387 40.8133 33.7883 41.0938C33.4448 41.3673 33.1048 41.5462 32.7682 41.6303C32.4384 41.7145 32.1327 41.7566 31.851 41.7566C31.3839 41.7566 30.9923 41.6899 30.6763 41.5567C30.3603 41.4164 30.1061 41.2341 29.9138 41.0097C29.7214 40.7783 29.5806 40.5188 29.4913 40.2313C29.4088 39.9367 29.3676 39.6352 29.3676 39.3266C29.3676 38.9619 29.4157 38.5376 29.5119 38.0538C29.6149 37.5629 29.7249 37.0614 29.8416 36.5495C29.9584 36.0376 30.0649 35.5431 30.1611 35.0663C30.2641 34.5894 30.3157 34.1791 30.3157 33.8355C30.3157 33.0992 30.0615 32.731 29.5531 32.731C29.3608 32.731 29.1821 32.7836 29.0173 32.8888C28.8524 32.994 28.7013 33.1377 28.5639 33.3201C28.4265 33.4954 28.3028 33.7058 28.1929 33.9512C28.083 34.1897 27.9868 34.4456 27.9044 34.7191L26.472 41.6303H23.4322L25.6683 30.8585H28.7081L28.4814 31.9736C28.7081 31.7141 28.9314 31.5072 29.1512 31.353C29.3779 31.1917 29.5978 31.0689 29.8107 30.9848C30.0237 30.9006 30.2229 30.8445 30.4084 30.8165C30.6007 30.7884 30.7794 30.7744 30.9442 30.7744C31.2809 30.7744 31.5934 30.82 31.882 30.9111C32.1705 31.0023 32.4178 31.1461 32.6239 31.3424C32.8369 31.5388 33.0017 31.7913 33.1185 32.0998C33.2353 32.4084 33.2937 32.7766 33.2937 33.2044C33.2937 33.4919 33.2662 33.804 33.2113 34.1406C33.1632 34.4702 33.1013 34.8103 33.0258 35.1609C32.9502 35.5046 32.8678 35.8482 32.7785 36.1918C32.696 36.5355 32.617 36.8651 32.5415 37.1807C32.4659 37.4962 32.4006 37.7908 32.3457 38.0643C32.2976 38.3308 32.2735 38.5657 32.2735 38.7691C32.2735 39.0356 32.3319 39.253 32.4487 39.4213C32.5724 39.5896 32.7956 39.6737 33.1185 39.6737C33.3452 39.6737 33.5444 39.6281 33.7162 39.537C33.8879 39.4458 34.0425 39.3161 34.1799 39.1478C34.3173 38.9795 34.4409 38.7796 34.5509 38.5482C34.6676 38.3097 34.781 38.0503 34.8909 37.7697H35.7771Z" fill="white"/>
<path d="M44.4684 37.7697C43.9189 38.4219 43.3659 38.9619 42.8094 39.3897C42.2598 39.8105 41.7377 40.1681 41.2431 40.4627C41.0233 40.7011 40.776 40.9045 40.5012 41.0728C40.2332 41.2341 39.9516 41.3673 39.6562 41.4725C39.3677 41.5707 39.0723 41.6408 38.77 41.6829C38.4746 41.732 38.1929 41.7566 37.925 41.7566C37.396 41.7566 36.9358 41.6759 36.5442 41.5146C36.1595 41.3463 35.84 41.1324 35.5859 40.8729C35.3317 40.6064 35.1462 40.3119 35.0294 39.9893C34.9057 39.6597 34.8439 39.3301 34.8439 39.0005C34.8439 38.748 34.8783 38.5166 34.947 38.3062C35.0088 38.0888 35.0912 37.896 35.1943 37.7277C35.2973 37.5594 35.4141 37.4156 35.5446 37.2964C35.682 37.1701 35.8229 37.072 35.9671 37.0018C36.5579 35.9218 37.056 34.8559 37.4613 33.804C37.8666 32.745 38.2341 31.6826 38.5639 30.6166L41.6862 30.1958C41.7274 31.1285 41.7652 31.9385 41.7995 32.6258C41.8408 33.306 41.8785 33.8986 41.9129 34.4036C41.9472 34.9015 41.9782 35.3257 42.0056 35.6764C42.0331 36.027 42.0572 36.3391 42.0778 36.6126C42.1052 36.8791 42.1224 37.1246 42.1293 37.349C42.143 37.5664 42.1499 37.7943 42.1499 38.0327C42.1499 38.194 42.143 38.3413 42.1293 38.4745C42.1224 38.6078 42.1018 38.734 42.0675 38.8532C42.3766 38.6709 42.6548 38.4921 42.9021 38.3167C43.1563 38.1344 43.383 37.9521 43.5822 37.7697H44.4684ZM35.9671 38.5482C35.9671 39.0531 36.0633 39.4318 36.2557 39.6843C36.4549 39.9297 36.7881 40.0524 37.2552 40.0524C37.4888 40.0524 37.7155 40.0209 37.9353 39.9578C38.1551 39.8876 38.3509 39.7754 38.5227 39.6211C38.6944 39.4598 38.8318 39.253 38.9349 39.0005C39.0379 38.748 39.0894 38.4325 39.0894 38.0538C39.0894 37.8714 39.0826 37.6961 39.0688 37.5278C39.0619 37.3525 39.0516 37.1701 39.0379 36.9808C39.0242 36.7844 39.0036 36.567 38.9761 36.3286C38.9555 36.0902 38.928 35.8131 38.8936 35.4976C38.8662 35.182 38.8352 34.8173 38.8009 34.4036C38.7666 33.9898 38.7288 33.5059 38.6875 32.9519C38.4746 33.6532 38.2238 34.3334 37.9353 34.9926C37.6468 35.6518 37.3273 36.3286 36.977 37.0229C37.1144 37.1 37.2277 37.1982 37.317 37.3174C37.4132 37.4366 37.4613 37.5874 37.4613 37.7697C37.4613 37.903 37.4407 38.0327 37.3995 38.159C37.3582 38.2852 37.2964 38.4009 37.214 38.5061C37.1315 38.6043 37.0319 38.6849 36.9152 38.748C36.8052 38.8041 36.6781 38.8322 36.5339 38.8322C36.4171 38.8322 36.3072 38.8147 36.2041 38.7796C36.1011 38.7445 36.0221 38.6674 35.9671 38.5482Z" fill="white"/>
<path d="M50.7382 37.7697C50.539 38.3518 50.3157 38.8567 50.0684 39.2845C49.828 39.7123 49.5738 40.0735 49.3059 40.368C49.0448 40.6625 48.7734 40.901 48.4918 41.0833C48.217 41.2657 47.9491 41.4059 47.688 41.5041C47.427 41.6023 47.1762 41.6689 46.9358 41.704C46.7022 41.739 46.4927 41.7566 46.3072 41.7566C45.9912 41.7566 45.6958 41.7075 45.421 41.6093C45.1462 41.5111 44.9058 41.3568 44.6997 41.1464C44.5005 40.9361 44.3425 40.6696 44.2257 40.347C44.1089 40.0244 44.0505 39.6352 44.0505 39.1793C44.0505 38.983 44.0642 38.7691 44.0917 38.5376C44.1192 38.2992 44.1604 38.0432 44.2154 37.7697L45.4828 31.7211H44.7821L44.9573 30.8585H45.6477L46.2866 27.8816L49.4089 27.4503L48.6876 30.8585H49.955L49.7902 31.7211H48.5227L47.1728 38.18C47.1384 38.2992 47.1144 38.4184 47.1007 38.5376C47.0938 38.6499 47.0904 38.7621 47.0904 38.8743C47.0904 39.1758 47.1591 39.3862 47.2965 39.5054C47.4338 39.6176 47.6502 39.6737 47.9456 39.6737C48.1517 39.6737 48.351 39.6281 48.5433 39.537C48.7425 39.4388 48.9246 39.3056 49.0895 39.1372C49.2543 38.9689 49.402 38.7691 49.5326 38.5376C49.6631 38.2992 49.7696 38.0432 49.852 37.7697H50.7382Z" fill="white"/>
<path d="M59.1101 38.18C59.0757 38.2992 59.0517 38.4184 59.038 38.5376C59.0242 38.6499 59.0174 38.7621 59.0174 38.8743C59.0174 39.1758 59.086 39.3862 59.2234 39.5054C59.3677 39.6176 59.5875 39.6737 59.8829 39.6737C59.9791 39.6737 60.065 39.6667 60.1406 39.6527C60.2161 39.6387 60.2848 39.6141 60.3466 39.5791C60.2024 39.9507 60.065 40.2733 59.9345 40.5468C59.8039 40.8203 59.6597 41.0483 59.5017 41.2306C59.3437 41.4059 59.1616 41.5392 58.9555 41.6303C58.7563 41.7145 58.5193 41.7566 58.2445 41.7566C57.6606 41.7566 57.19 41.5847 56.8328 41.2411C56.4755 40.8905 56.2557 40.3961 56.1733 39.7579C56.0153 40.0033 55.8298 40.2453 55.6168 40.4837C55.4107 40.7222 55.1772 40.9361 54.9161 41.1254C54.6619 41.3147 54.3768 41.469 54.0608 41.5882C53.7448 41.7005 53.4013 41.7566 53.0304 41.7566C52.6663 41.7566 52.3159 41.6969 51.9793 41.5777C51.6427 41.4585 51.3438 41.2621 51.0828 40.9886C50.8217 40.7151 50.6122 40.3575 50.4542 39.9157C50.2962 39.4739 50.2172 38.9339 50.2172 38.2957C50.2172 37.8048 50.2653 37.2788 50.3615 36.7178C50.4576 36.1568 50.6053 35.5957 50.8046 35.0347C51.0038 34.4737 51.2511 33.9372 51.5465 33.4253C51.8488 32.9063 52.1991 32.4505 52.5976 32.0577C53.0029 31.658 53.4597 31.3424 53.9681 31.111C54.4764 30.8726 55.0363 30.7534 55.6477 30.7534C56.2454 30.7534 56.6782 30.8585 56.9461 31.0689C57.2209 31.2793 57.3583 31.5388 57.3583 31.8474V32.0052L57.585 30.8585H60.6249L59.1101 38.18ZM57.1625 32.9098C57.1625 32.8467 57.1488 32.7696 57.1213 32.6784C57.0938 32.5802 57.0457 32.489 56.977 32.4049C56.9152 32.3137 56.8293 32.2401 56.7194 32.184C56.6095 32.1209 56.4687 32.0893 56.2969 32.0893C56.0015 32.0893 55.7199 32.1875 55.452 32.3838C55.1909 32.5802 54.9505 32.8432 54.7306 33.1728C54.5108 33.4954 54.315 33.8636 54.1433 34.2773C53.9715 34.6911 53.8238 35.1189 53.7002 35.5607C53.5834 35.9955 53.4941 36.4268 53.4322 36.8546C53.3704 37.2753 53.3395 37.654 53.3395 37.9906C53.3395 38.4044 53.3773 38.7235 53.4529 38.9479C53.5284 39.1723 53.6177 39.3406 53.7208 39.4528C53.8307 39.558 53.9475 39.6211 54.0711 39.6422C54.1948 39.6632 54.3047 39.6737 54.4009 39.6737C54.5589 39.6737 54.7238 39.6352 54.8955 39.558C55.0741 39.4739 55.2424 39.3546 55.4004 39.2004C55.5653 39.0391 55.713 38.8392 55.8435 38.6008C55.9809 38.3623 56.084 38.0853 56.1527 37.7697L57.1625 32.9098Z" fill="white"/>
</g>
</g>
<defs>
<filter id="filter0_d_1_195" x="0" y="0" width="78" height="78" filterUnits="userSpaceOnUse" color-interpolation-filters="sRGB">
<feFlood flood-opacity="0" result="BackgroundImageFix"/>
<feColorMatrix in="SourceAlpha" type="matrix" values="0 0 0 0 0 0 0 0 0 0 0 0 0 0 0 0 0 0 127 0" result="hardAlpha"/>
<feOffset dy="4"/>
<feGaussianBlur stdDeviation="2"/>
<feComposite in2="hardAlpha" operator="out"/>
<feColorMatrix type="matrix" values="0 0 0 0 0 0 0 0 0 0 0 0 0 0 0 0 0 0 0.25 0"/>
<feBlend mode="normal" in2="BackgroundImageFix" result="effect1_dropShadow_1_195"/>
<feBlend mode="normal" in="SourceGraphic" in2="effect1_dropShadow_1_195" result="shape"/>
</filter>
<linearGradient id="paint0_linear_1_195" x1="8.95505" y1="65.1382" x2="73.8001" y2="8.99469" gradientUnits="userSpaceOnUse">
<stop stop-color="#FFDD55"/>
<stop offset="0.5" stop-color="#FF543E"/>
<stop offset="1" stop-color="#C837AB"/>
</linearGradient>
<clipPath id="clip0_1_195">
<rect x="4" width="70" height="70" rx="35" fill="white"/>
</clipPath>
</defs>
</svg>
