<svg width="70" height="70" viewBox="0 0 70 70" fill="none" xmlns="http://www.w3.org/2000/svg">
<rect width="70" height="70" rx="35" fill="#2482DA"/>
<path d="M46.0835 37.8422C45.5388 37.1532 45.6963 36.8513 46.0835 36.2411C46.0901 36.2345 50.5723 30.0402 51.0382 27.9405C51.2679 27.1727 51.0382 26.615 49.9292 26.615H46.2542C45.3157 26.615 44.8892 27.1006 44.6595 27.6386C44.6595 27.6386 42.7892 32.1138 40.1445 35.0141C39.2913 35.854 38.8976 36.123 38.4317 36.123C38.202 36.123 37.8476 35.854 37.8476 35.0862V27.9273C37.8476 27.0087 37.5851 26.6019 36.8107 26.6019H31.0357C30.4517 26.6019 30.0973 27.0284 30.0973 27.4287C30.0973 28.3014 31.4229 28.4982 31.5607 30.9523V36.2674C31.5607 37.4288 31.3507 37.6453 30.8782 37.6453C29.6313 37.6453 26.5995 33.1505 24.8013 28.0061C24.4338 27.0087 24.0795 26.6019 23.1345 26.6019H19.4595C18.4095 26.6019 18.1995 27.0874 18.1995 27.6255C18.1995 28.577 19.4463 33.3277 24.0073 39.6007C27.0457 43.879 31.3245 46.2019 35.216 46.2019C37.5523 46.2019 37.841 45.6835 37.841 44.7976C37.841 40.7097 37.631 40.3225 38.7992 40.3225C39.3438 40.3225 40.2757 40.5916 42.461 42.6585C44.9548 45.106 45.3682 46.2019 46.766 46.2019H50.441C51.491 46.2019 52.016 45.6835 51.7142 44.673C51.012 42.5338 46.2935 38.1309 46.0835 37.8422Z" fill="white"/>
</svg>
